<svg class="svg-icon" style="width: 1em;height: 1em;vertical-align: middle;fill: currentColor;overflow: hidden;" viewBox="0 0 1024 1024" version="1.1" xmlns="http://www.w3.org/2000/svg"><path d="M539.008 96.512l-19.2-21.76-19.2 21.76c-12.672 14.336-309.12 352.896-309.12 527.744 0 180.992 147.328 328.32 328.32 328.32 180.992 0 328.32-147.328 328.32-328.32 0-174.848-296.448-513.408-309.12-527.744z m-19.2 56.064c92.288 108.8 277.12 351.488 277.12 471.68 0 5.504-0.256 10.88-0.512 16.384-94.208 55.552-137.472 32.768-276.608-54.144-94.208-58.88-188.288-94.464-246.016-72.832 56.576-123.776 177.152-279.808 246.016-361.088z"  /></svg>